<?xml version="1.0" encoding="utf-8"?>
<svg viewBox="118.19998168945312 595.9000244140625 263.4000549316406 222.89996337890625" width="263.4000549316406" height="222.89996337890625" xmlns="http://www.w3.org/2000/svg"><g transform="matrix(1, 0, 0, 1, 0, 0)">
	<path d="M 361.29998779296875 616.2000122070312 L 361.29998779296875 595.9000244140625 L 341.1000061035156 595.9000244140625 L 320.79998779296875 595.9000244140625 L 300.6000061035156 595.9000244140625 L 280.29998779296875 595.9000244140625 L 280.29998779296875 616.2000122070312 L 260 616.2000122070312 L 260 636.5 L 239.8000030517578 636.5 L 239.8000030517578 616.2000122070312 L 219.5 616.2000122070312 L 219.5 595.9000244140625 L 199.1999969482422 595.9000244140625 L 179 595.9000244140625 L 158.6999969482422 595.9000244140625 L 138.5 595.9000244140625 L 138.5 616.2000122070312 L 118.19999694824219 616.2000122070312 L 118.19999694824219 636.5 L 118.19999694824219 656.7000122070312 L 118.19999694824219 677 L 118.19999694824219 697.2999877929688 L 138.5 697.2999877929688 L 138.5 717.5 L 158.6999969482422 717.5 L 158.6999969482422 737.7999877929688 L 179 737.7999877929688 L 179 758 L 197.39999389648438 758 L 199.1999969482422 759.7999877929688 L 199.1999969482422 778.2999877929688 L 218.60000610351562 778.2999877929688 L 219.5 779.2000122070312 L 219.5 798.5999755859375 L 239.8000030517578 798.5999755859375 L 239.8000030517578 818.7999877929688 L 260 818.7999877929688 L 260 798.5999755859375 L 259.20001220703125 798.5999755859375 L 260 797.7999877929688 L 260 798.5999755859375 L 280.29998779296875 798.5999755859375 L 280.29998779296875 778.2999877929688 L 300.6000061035156 778.2999877929688 L 300.6000061035156 758 L 320.79998779296875 758 L 320.79998779296875 737.7999877929688 L 341.1000061035156 737.7999877929688 L 341.1000061035156 717.5 L 361.29998779296875 717.5 L 361.29998779296875 697.2999877929688 L 381.6000061035156 697.2999877929688 L 381.6000061035156 677 L 381.6000061035156 656.7000122070312 L 381.6000061035156 636.5 L 381.6000061035156 616.2000122070312 Z" class="st3" style="fill: rgb(254, 4, 0);"/>
	<g>
		<path d="M 138.5 636.5 H 158.799999 V 656.799999 H 138.5 V 636.5 Z" class="st1" style="fill: rgb(255, 255, 255);"/>
		<path d="M 179 616.2000122070312 L 158.6999969482422 616.2000122070312 L 158.6999969482422 636.5 L 179 636.5 L 199.1999969482422 636.5 L 199.1999969482422 616.2000122070312 Z" class="st1" style="fill: rgb(255, 255, 255);"/>
	</g>
</g></svg>